<svg width="102" height="97" viewBox="0 0 102 97" fill="none" xmlns="http://www.w3.org/2000/svg">
<path d="M71.4307 49.9719C81.8615 49.9719 90.3174 41.4332 90.3174 30.9C90.3174 20.3669 81.8615 11.8281 71.4307 11.8281C60.9998 11.8281 52.5439 20.3669 52.5439 30.9C52.5439 41.4332 60.9998 49.9719 71.4307 49.9719Z" fill="#00C8FF"/>
<path d="M71.4307 60.8352C87.7768 60.8352 101.075 47.4064 101.075 30.9003C101.075 14.3939 87.7768 0.965088 71.4307 0.965088C55.0846 0.965088 41.7861 14.3939 41.7861 30.9003C41.7861 47.4064 55.0846 60.8352 71.4307 60.8352ZM71.4307 4.98853C85.5796 4.98853 97.0909 16.6124 97.0909 30.9003C97.0909 45.1879 85.5798 56.8118 71.4307 56.8118C57.2818 56.8118 45.7705 45.1879 45.7705 30.9003C45.7705 16.6124 57.2816 4.98853 71.4307 4.98853Z" fill="black"/>
<path d="M68.085 35.9238C67.3947 35.0585 66.1408 34.9223 65.2837 35.6192C64.4269 36.3163 64.292 37.5826 64.9821 38.4479C66.0804 39.8245 67.6548 40.6067 69.2231 40.9814C69.3066 42.0149 70.1636 42.8272 71.2085 42.8272C72.204 42.8272 73.029 42.0899 73.177 41.1265C75.9828 40.6207 77.9517 38.7343 78.2746 36.1662C78.6499 33.183 76.7336 30.3221 73.6147 29.2089C73.4726 29.1582 73.3348 29.1087 73.2007 29.0602V25.1844C73.3666 25.2912 73.4904 25.4079 73.5689 25.5206C74.2004 26.4301 75.4429 26.6503 76.344 26.0118C77.2446 25.3737 77.4624 24.119 76.8303 23.2095C76.1057 22.1664 74.8403 21.2815 73.1995 20.9169C73.164 19.8373 72.2863 18.973 71.2085 18.973C70.1082 18.973 69.2163 19.8737 69.2163 20.9847V21.0521C69.094 21.0845 68.9709 21.1193 68.847 21.1571C66.7556 21.7935 65.1774 23.8388 65.009 26.1313C64.8417 28.4096 66.0358 30.3857 68.2031 31.4177C68.4394 31.5304 68.7846 31.6776 69.2161 31.8512V36.7554C68.7593 36.5478 68.3625 36.2716 68.085 35.9238ZM74.3219 35.6592C74.2478 36.2485 73.8527 36.6985 73.2007 36.9652V33.4707C74.0759 34.0915 74.4086 34.9712 74.3219 35.6592ZM68.9828 26.4289C69.0018 26.1693 69.087 25.9122 69.2165 25.6877V27.2609C69.0362 27.0249 68.9591 26.7489 68.9828 26.4289Z" fill="white"/>
<path d="M101.992 69.3911C101.887 66.9491 100.766 64.8492 98.8342 63.4786C95.6513 61.2197 91.3553 61.612 88.6187 64.4111C88.531 64.5008 88.4517 64.5986 88.3822 64.7034L84.0117 71.2787C82.7881 68.3623 79.9453 66.3136 76.6424 66.3136L45.1993 66.2922H45.198C44.721 66.2922 44.2602 66.4648 43.8988 66.7789L36.0217 73.6221H30.2733V71.854C30.2733 70.743 29.3812 69.8423 28.2811 69.8423H19.5095V69.5671C19.5095 68.456 18.6174 67.5554 17.5173 67.5554H1.99219C0.891902 67.5554 0 68.456 0 69.5671V93.1601C0 94.2712 0.891902 95.1719 1.99219 95.1719H17.5173C18.6174 95.1719 19.5095 94.2712 19.5095 93.1601V92.8849H28.2809C29.381 92.8849 30.2731 91.9843 30.2731 90.8732V89.0156H36.8786L42.846 95.4034C43.2227 95.8066 43.747 96.0347 44.2951 96.0347C44.3045 96.0347 44.3138 96.0347 44.3232 96.0345L85.4646 95.4517C86.1065 95.4426 86.7048 95.1218 87.0715 94.5899L100.143 75.6347C100.152 75.6228 100.16 75.6107 100.168 75.5988C101.433 73.6766 102.081 71.472 101.992 69.3911ZM15.5251 91.1484H3.98438V71.5788H15.5251V91.1484ZM26.2887 88.8617H19.5095V73.8657H26.2887V88.8617ZM96.8612 73.3538L84.3863 91.4433L45.1434 91.9992L39.1875 85.6236C38.811 85.2207 38.2869 84.9924 37.7384 84.9924H30.2733V77.6456H36.7608C37.2378 77.6456 37.6986 77.473 38.0599 77.1589L45.9365 70.3163L76.6411 70.3372C78.8617 70.3372 80.6685 72.1952 80.6685 74.4791C80.6685 76.7628 78.8619 78.6206 76.6411 78.6206C76.6359 78.6206 76.6307 78.6208 76.6255 78.6208H59.4449C58.8982 78.6208 58.3755 78.8478 57.9992 79.2485L53.808 83.7125C53.051 84.5188 53.0846 85.792 53.8831 86.5565C54.2684 86.9252 54.7612 87.1083 55.2533 87.1083C55.7811 87.1083 56.3078 86.8979 56.6995 86.4806L60.3013 82.6443L80.1927 82.6451H80.1933C80.8571 82.6451 81.4775 82.3111 81.8474 81.7545L91.5757 67.119C92.9429 65.8324 95.0052 65.6787 96.5432 66.7706C98.6193 68.2438 98.275 71.1936 96.8612 73.3538Z" fill="black"/>
</svg>
